<svg xmlns="http://www.w3.org/2000/svg" width="1200" height="340" viewBox="0 0 1200 340" role="img" aria-label="Swapnil Yadav, ML Engineer, Data Scientist, AI Builder">
<title>Swapnil Yadav</title>
<defs>
  <linearGradient id="bg" x1="0" y1="0" x2="1" y2="1">
    <stop offset="0" stop-color="#060a16"/><stop offset="0.55" stop-color="#0c1428"/><stop offset="1" stop-color="#1a1440"/>
  </linearGradient>
  <linearGradient id="role" x1="0" y1="0" x2="1" y2="0">
    <stop offset="0" stop-color="#38bdf8"/><stop offset="0.5" stop-color="#a78bfa"/><stop offset="1" stop-color="#f472b6"/>
  </linearGradient>
  <pattern id="dots" width="22" height="22" patternUnits="userSpaceOnUse">
    <circle cx="1.5" cy="1.5" r="1.2" fill="#334155"/>
  </pattern>
  <linearGradient id="fade" x1="0" y1="0" x2="1" y2="0">
    <stop offset="0.2" stop-color="#fff" stop-opacity="0"/><stop offset="1" stop-color="#fff" stop-opacity="0.9"/>
  </linearGradient>
  <mask id="dotmask"><rect width="1200" height="340" fill="url(#fade)"/></mask>
  <clipPath id="card"><rect width="1200" height="340" rx="22"/></clipPath>
  <filter id="blur" x="-50%" y="-50%" width="200%" height="200%"><feGaussianBlur stdDeviation="55"/></filter>
</defs>
<style>
  .edges path { stroke: #475569; stroke-opacity: .6; stroke-width: 1.1; fill: none; }
  .pulses path { fill: none; stroke-width: 2.4; stroke-linecap: round; stroke-dasharray: 9 300;
                 stroke-dashoffset: 10; opacity: 0; animation: travel 3.6s linear infinite; }
  @keyframes travel { 0% { stroke-dashoffset: 10; opacity: 0; } 2% { opacity: 1; }
                       27% { stroke-dashoffset: -100; opacity: 1; } 28%, 100% { stroke-dashoffset: -100; opacity: 0; } }
  .glow { opacity: 0; transform-box: fill-box; transform-origin: center; animation: fire 3.6s ease-out infinite; }
  @keyframes fire { 0% { opacity: 0; transform: scale(.4); } 6% { opacity: .55; transform: scale(1); }
                     22%, 100% { opacity: 0; transform: scale(1.5); } }
  .blob { animation: drift 14s ease-in-out infinite alternate; }
  .blob2 { animation-duration: 18s; animation-direction: alternate-reverse; }
  @keyframes drift { from { transform: translate(0, 0); } to { transform: translate(-90px, 40px); } }
  .cursor { animation: blink 1.1s steps(1) infinite; }
  @keyframes blink { 50% { fill-opacity: 0; } }
  .live { animation: live 2s ease-in-out infinite; }
  @keyframes live { 50% { fill-opacity: .25; } }
  .rise { animation: rise .9s ease-out both; }
  @keyframes rise { from { opacity: 0; transform: translateY(10px); } to { opacity: 1; transform: none; } }
  @media (prefers-reduced-motion: reduce) { * { animation: none !important; } }
</style>
<g clip-path="url(#card)">
  <rect width="1200" height="340" fill="url(#bg)"/>
  <circle class="blob" cx="980" cy="70" r="150" fill="#a78bfa" opacity=".28" filter="url(#blur)"/>
  <circle class="blob blob2" cx="1120" cy="300" r="130" fill="#38bdf8" opacity=".22" filter="url(#blur)"/>
  <rect width="1200" height="340" fill="url(#dots)" mask="url(#dotmask)"/>
</g>
<rect x=".5" y=".5" width="1199" height="339" rx="22" fill="none" stroke="#1e293b"/>

<g class="edges"><path d="M770,130.0 L880,82.0"/><path d="M770,130.0 L880,130.0"/><path d="M770,130.0 L880,178.0"/><path d="M770,130.0 L880,226.0"/><path d="M770,130.0 L880,274.0"/><path d="M770,178.0 L880,82.0"/><path d="M770,178.0 L880,130.0"/><path d="M770,178.0 L880,178.0"/><path d="M770,178.0 L880,226.0"/><path d="M770,178.0 L880,274.0"/><path d="M770,226.0 L880,82.0"/><path d="M770,226.0 L880,130.0"/><path d="M770,226.0 L880,178.0"/><path d="M770,226.0 L880,226.0"/><path d="M770,226.0 L880,274.0"/><path d="M880,82.0 L990,82.0"/><path d="M880,82.0 L990,130.0"/><path d="M880,82.0 L990,178.0"/><path d="M880,82.0 L990,226.0"/><path d="M880,82.0 L990,274.0"/><path d="M880,130.0 L990,82.0"/><path d="M880,130.0 L990,130.0"/><path d="M880,130.0 L990,178.0"/><path d="M880,130.0 L990,226.0"/><path d="M880,130.0 L990,274.0"/><path d="M880,178.0 L990,82.0"/><path d="M880,178.0 L990,130.0"/><path d="M880,178.0 L990,178.0"/><path d="M880,178.0 L990,226.0"/><path d="M880,178.0 L990,274.0"/><path d="M880,226.0 L990,82.0"/><path d="M880,226.0 L990,130.0"/><path d="M880,226.0 L990,178.0"/><path d="M880,226.0 L990,226.0"/><path d="M880,226.0 L990,274.0"/><path d="M880,274.0 L990,82.0"/><path d="M880,274.0 L990,130.0"/><path d="M880,274.0 L990,178.0"/><path d="M880,274.0 L990,226.0"/><path d="M880,274.0 L990,274.0"/><path d="M990,82.0 L1100,154.0"/><path d="M990,82.0 L1100,202.0"/><path d="M990,130.0 L1100,154.0"/><path d="M990,130.0 L1100,202.0"/><path d="M990,178.0 L1100,154.0"/><path d="M990,178.0 L1100,202.0"/><path d="M990,226.0 L1100,154.0"/><path d="M990,226.0 L1100,202.0"/><path d="M990,274.0 L1100,154.0"/><path d="M990,274.0 L1100,202.0"/></g>
<g class="pulses"><path d="M770,130.0 L880,82.0" pathLength="100" stroke="#a78bfa" style="animation-delay:0.00s"/><path d="M770,130.0 L880,178.0" pathLength="100" stroke="#a78bfa" style="animation-delay:0.15s"/><path d="M770,130.0 L880,274.0" pathLength="100" stroke="#a78bfa" style="animation-delay:0.30s"/><path d="M770,178.0 L880,130.0" pathLength="100" stroke="#a78bfa" style="animation-delay:0.05s"/><path d="M770,178.0 L880,226.0" pathLength="100" stroke="#a78bfa" style="animation-delay:0.20s"/><path d="M770,226.0 L880,82.0" pathLength="100" stroke="#a78bfa" style="animation-delay:0.30s"/><path d="M770,226.0 L880,178.0" pathLength="100" stroke="#a78bfa" style="animation-delay:0.10s"/><path d="M770,226.0 L880,274.0" pathLength="100" stroke="#a78bfa" style="animation-delay:0.25s"/><path d="M880,82.0 L990,130.0" pathLength="100" stroke="#a78bfa" style="animation-delay:1.30s"/><path d="M880,82.0 L990,226.0" pathLength="100" stroke="#a78bfa" style="animation-delay:1.10s"/><path d="M880,130.0 L990,82.0" pathLength="100" stroke="#a78bfa" style="animation-delay:1.20s"/><path d="M880,130.0 L990,178.0" pathLength="100" stroke="#a78bfa" style="animation-delay:1.35s"/><path d="M880,130.0 L990,274.0" pathLength="100" stroke="#a78bfa" style="animation-delay:1.15s"/><path d="M880,178.0 L990,130.0" pathLength="100" stroke="#a78bfa" style="animation-delay:1.25s"/><path d="M880,178.0 L990,226.0" pathLength="100" stroke="#a78bfa" style="animation-delay:1.05s"/><path d="M880,226.0 L990,82.0" pathLength="100" stroke="#a78bfa" style="animation-delay:1.15s"/><path d="M880,226.0 L990,178.0" pathLength="100" stroke="#a78bfa" style="animation-delay:1.30s"/><path d="M880,226.0 L990,274.0" pathLength="100" stroke="#a78bfa" style="animation-delay:1.10s"/><path d="M880,274.0 L990,130.0" pathLength="100" stroke="#a78bfa" style="animation-delay:1.20s"/><path d="M880,274.0 L990,226.0" pathLength="100" stroke="#a78bfa" style="animation-delay:1.35s"/><path d="M990,82.0 L1100,154.0" pathLength="100" stroke="#34d399" style="animation-delay:2.10s"/><path d="M990,130.0 L1100,202.0" pathLength="100" stroke="#34d399" style="animation-delay:2.15s"/><path d="M990,178.0 L1100,154.0" pathLength="100" stroke="#34d399" style="animation-delay:2.40s"/><path d="M990,226.0 L1100,202.0" pathLength="100" stroke="#34d399" style="animation-delay:2.10s"/><path d="M990,274.0 L1100,154.0" pathLength="100" stroke="#34d399" style="animation-delay:2.35s"/></g>
<g><circle class="glow" cx="770" cy="130.0" r="15" fill="#38bdf8" style="animation-delay:0.25s"/><circle cx="770" cy="130.0" r="7" fill="#0b1222" stroke="#38bdf8" stroke-width="2.2"/><circle class="glow" cx="770" cy="178.0" r="15" fill="#38bdf8" style="animation-delay:0.25s"/><circle cx="770" cy="178.0" r="7" fill="#0b1222" stroke="#38bdf8" stroke-width="2.2"/><circle class="glow" cx="770" cy="226.0" r="15" fill="#38bdf8" style="animation-delay:0.25s"/><circle cx="770" cy="226.0" r="7" fill="#0b1222" stroke="#38bdf8" stroke-width="2.2"/><circle class="glow" cx="880" cy="82.0" r="15" fill="#a78bfa" style="animation-delay:1.30s"/><circle cx="880" cy="82.0" r="7" fill="#0b1222" stroke="#a78bfa" stroke-width="2.2"/><circle class="glow" cx="880" cy="130.0" r="15" fill="#a78bfa" style="animation-delay:1.30s"/><circle cx="880" cy="130.0" r="7" fill="#0b1222" stroke="#a78bfa" stroke-width="2.2"/><circle class="glow" cx="880" cy="178.0" r="15" fill="#a78bfa" style="animation-delay:1.30s"/><circle cx="880" cy="178.0" r="7" fill="#0b1222" stroke="#a78bfa" stroke-width="2.2"/><circle class="glow" cx="880" cy="226.0" r="15" fill="#a78bfa" style="animation-delay:1.30s"/><circle cx="880" cy="226.0" r="7" fill="#0b1222" stroke="#a78bfa" stroke-width="2.2"/><circle class="glow" cx="880" cy="274.0" r="15" fill="#a78bfa" style="animation-delay:1.30s"/><circle cx="880" cy="274.0" r="7" fill="#0b1222" stroke="#a78bfa" stroke-width="2.2"/><circle class="glow" cx="990" cy="82.0" r="15" fill="#a78bfa" style="animation-delay:2.35s"/><circle cx="990" cy="82.0" r="7" fill="#0b1222" stroke="#a78bfa" stroke-width="2.2"/><circle class="glow" cx="990" cy="130.0" r="15" fill="#a78bfa" style="animation-delay:2.35s"/><circle cx="990" cy="130.0" r="7" fill="#0b1222" stroke="#a78bfa" stroke-width="2.2"/><circle class="glow" cx="990" cy="178.0" r="15" fill="#a78bfa" style="animation-delay:2.35s"/><circle cx="990" cy="178.0" r="7" fill="#0b1222" stroke="#a78bfa" stroke-width="2.2"/><circle class="glow" cx="990" cy="226.0" r="15" fill="#a78bfa" style="animation-delay:2.35s"/><circle cx="990" cy="226.0" r="7" fill="#0b1222" stroke="#a78bfa" stroke-width="2.2"/><circle class="glow" cx="990" cy="274.0" r="15" fill="#a78bfa" style="animation-delay:2.35s"/><circle cx="990" cy="274.0" r="7" fill="#0b1222" stroke="#a78bfa" stroke-width="2.2"/><circle class="glow" cx="1100" cy="154.0" r="15" fill="#34d399" style="animation-delay:3.40s"/><circle cx="1100" cy="154.0" r="7" fill="#0b1222" stroke="#34d399" stroke-width="2.2"/><circle class="glow" cx="1100" cy="202.0" r="15" fill="#34d399" style="animation-delay:3.40s"/><circle cx="1100" cy="202.0" r="7" fill="#0b1222" stroke="#34d399" stroke-width="2.2"/></g>

<g font-family="'JetBrains Mono', 'Cascadia Code', 'Fira Code', Consolas, Menlo, 'DejaVu Sans Mono', monospace" font-size="13">
  <circle class="live" cx="887" cy="40" r="5" fill="#34d399"/>
  <text x="900" y="44.5" fill="#94a3b8">open to SWE / ML internships</text>
</g>

<g class="rise">
  <text x="64" y="74" font-family="'JetBrains Mono', 'Cascadia Code', 'Fira Code', Consolas, Menlo, 'DejaVu Sans Mono', monospace" font-size="19" fill="#34d399">~$ whoami<tspan class="cursor" fill="#34d399"> &#9612;</tspan></text>
  <text x="62" y="150" font-family="'Segoe UI', -apple-system, BlinkMacSystemFont, 'Helvetica Neue', Arial, sans-serif" font-size="66" font-weight="700" fill="#f1f5f9" letter-spacing="-1">Swapnil Yadav</text>
  <text x="64" y="198" font-family="'Segoe UI', -apple-system, BlinkMacSystemFont, 'Helvetica Neue', Arial, sans-serif" font-size="27" font-weight="600" fill="url(#role)">ML Engineer · Data Scientist · AI Builder</text>
  <text x="64" y="238" font-family="'JetBrains Mono', 'Cascadia Code', 'Fira Code', Consolas, Menlo, 'DejaVu Sans Mono', monospace" font-size="16" fill="#94a3b8">B.Tech CSE (AI &amp; DS) @ IIIT Manipur · Lucknow, India</text>
  <rect x="64.0" y="264" width="143.5" height="32" rx="16.0" fill="#38bdf8" fill-opacity="0.1" stroke="#38bdf8" stroke-opacity="0.45"/><text x="135.8" y="285.0" text-anchor="middle" font-family="'JetBrains Mono', 'Cascadia Code', 'Fira Code', Consolas, Menlo, 'DejaVu Sans Mono', monospace" font-size="14" fill="#e2e8f0">explainable-ai</text><rect x="217.5" y="264" width="152.2" height="32" rx="16.0" fill="#a78bfa" fill-opacity="0.1" stroke="#a78bfa" stroke-opacity="0.45"/><text x="293.6" y="285.0" text-anchor="middle" font-family="'JetBrains Mono', 'Cascadia Code', 'Fira Code', Consolas, Menlo, 'DejaVu Sans Mono', monospace" font-size="14" fill="#e2e8f0">computer-vision</text><rect x="379.7" y="264" width="91.4" height="32" rx="16.0" fill="#34d399" fill-opacity="0.1" stroke="#34d399" stroke-opacity="0.45"/><text x="425.4" y="285.0" text-anchor="middle" font-family="'JetBrains Mono', 'Cascadia Code', 'Fira Code', Consolas, Menlo, 'DejaVu Sans Mono', monospace" font-size="14" fill="#e2e8f0">llm-apps</text><rect x="481.2" y="264" width="117.5" height="32" rx="16.0" fill="#fbbf24" fill-opacity="0.1" stroke="#fbbf24" stroke-opacity="0.45"/><text x="539.9" y="285.0" text-anchor="middle" font-family="'JetBrains Mono', 'Cascadia Code', 'Fira Code', Consolas, Menlo, 'DejaVu Sans Mono', monospace" font-size="14" fill="#e2e8f0">open-source</text>
</g>
<text x="1136" y="318" text-anchor="end" font-family="'JetBrains Mono', 'Cascadia Code', 'Fira Code', Consolas, Menlo, 'DejaVu Sans Mono', monospace" font-size="12" fill="#475569">// model.train()</text>
</svg>
